<svg xmlns="http://www.w3.org/2000/svg" width="28" height="28" viewBox="0 0 28 28" fill="none">
  <defs>
    
    <linearGradient id="tbar1A" x1="0" y1="0" x2="0" y2="1">
      <stop offset="0" stop-color="rgba(245,243,237,0.70)"></stop>
      <stop offset="0.55" stop-color="rgba(245,243,237,0.45)"></stop>
      <stop offset="1" stop-color="rgba(245,243,237,0.22)"></stop>
    </linearGradient>
    <linearGradient id="tbar1GlossA" x1="0" y1="0" x2="0" y2="1">
      <stop offset="0" stop-color="rgba(255,255,255,0.85)"></stop>
      <stop offset="1" stop-color="rgba(255,255,255,0)"></stop>
    </linearGradient>

    
    <linearGradient id="tbar2A" x1="0" y1="0" x2="0" y2="1">
      <stop offset="0" stop-color="rgba(245,243,237,0.90)"></stop>
      <stop offset="0.5" stop-color="rgba(245,243,237,0.65)"></stop>
      <stop offset="1" stop-color="rgba(122,155,118,0.55)"></stop>
    </linearGradient>
    <linearGradient id="tbar2GlossA" x1="0" y1="0" x2="0" y2="1">
      <stop offset="0" stop-color="rgba(255,255,255,0.95)"></stop>
      <stop offset="1" stop-color="rgba(255,255,255,0)"></stop>
    </linearGradient>

    
    <linearGradient id="tbar3A" x1="0" y1="0" x2="0" y2="1">
      <stop offset="0" stop-color="#DCEBD6"></stop>
      <stop offset="0.35" stop-color="#A8C3A2"></stop>
      <stop offset="0.80" stop-color="#7A9B76"></stop>
      <stop offset="1" stop-color="#4F6B4C"></stop>
    </linearGradient>
    <linearGradient id="tbar3GlossA" x1="0" y1="0" x2="0" y2="1">
      <stop offset="0" stop-color="rgba(255,255,255,0.95)"></stop>
      <stop offset="1" stop-color="rgba(255,255,255,0)"></stop>
    </linearGradient>
    <radialGradient id="tbar3GlowA" cx="50%" cy="50%" r="60%">
      <stop offset="0" stop-color="#7A9B76" stop-opacity="0.50"></stop>
      <stop offset="1" stop-color="#7A9B76" stop-opacity="0"></stop>
    </radialGradient>
  </defs>

  
  <ellipse cx="21.5" cy="13" rx="4.5" ry="9" fill="url(#tbar3GlowA)"></ellipse>

  
  <rect x="4" y="18" width="3.6" height="6" rx="1.8" fill="url(#tbar1A)"></rect>
  <rect x="4.5" y="18.4" width="2.6" height="2.2" rx="1.1" fill="url(#tbar1GlossA)" opacity="0.7"></rect>

  
  <rect x="10.2" y="12" width="3.6" height="12" rx="1.8" fill="url(#tbar2A)"></rect>
  <rect x="10.7" y="12.4" width="2.6" height="3.5" rx="1.1" fill="url(#tbar2GlossA)" opacity="0.8"></rect>

  
  <rect x="19.7" y="5" width="4.2" height="19" rx="2.1" fill="url(#tbar3A)"></rect>
  <rect x="20.3" y="5.5" width="3" height="5.5" rx="1.5" fill="url(#tbar3GlossA)" opacity="0.95"></rect>
  <rect x="19.7" y="5" width="4.2" height="19" rx="2.1" fill="none" stroke="rgba(255,255,255,0.18)" stroke-width="0.4"></rect>
</svg>
