<svg xmlns="http://www.w3.org/2000/svg" width="28" height="28" viewBox="0 0 28 28" fill="none">
  <defs>
    
    <linearGradient id="horFarA" x1="0" y1="0" x2="0" y2="1">
      <stop offset="0%" stop-color="rgba(245,243,237,0.40)"></stop>
      <stop offset="100%" stop-color="rgba(245,243,237,0.12)"></stop>
    </linearGradient>
    <linearGradient id="horFarGlossA" x1="0" y1="0" x2="0" y2="1">
      <stop offset="0%" stop-color="rgba(255,255,255,0.55)"></stop>
      <stop offset="100%" stop-color="rgba(255,255,255,0)"></stop>
    </linearGradient>

    
    <linearGradient id="horMidA" x1="0" y1="0" x2="0" y2="1">
      <stop offset="0%" stop-color="rgba(245,243,237,0.75)"></stop>
      <stop offset="100%" stop-color="rgba(245,243,237,0.30)"></stop>
    </linearGradient>
    <linearGradient id="horMidGlossA" x1="0" y1="0" x2="0" y2="1">
      <stop offset="0%" stop-color="rgba(255,255,255,0.80)"></stop>
      <stop offset="100%" stop-color="rgba(255,255,255,0)"></stop>
    </linearGradient>

    
    <linearGradient id="horNowA" x1="0" y1="0" x2="0" y2="1">
      <stop offset="0%" stop-color="#DCEBD6"></stop>
      <stop offset="35%" stop-color="#A8C3A2"></stop>
      <stop offset="80%" stop-color="#7A9B76"></stop>
      <stop offset="100%" stop-color="#4F6B4C"></stop>
    </linearGradient>
    <linearGradient id="horNowGlossA" x1="0" y1="0" x2="0" y2="1">
      <stop offset="0%" stop-color="rgba(255,255,255,0.95)"></stop>
      <stop offset="100%" stop-color="rgba(255,255,255,0)"></stop>
    </linearGradient>

    
    <radialGradient id="horGlowA" cx="50%" cy="50%" r="50%">
      <stop offset="0%" stop-color="#7A9B76" stop-opacity="0.45"></stop>
      <stop offset="100%" stop-color="#7A9B76" stop-opacity="0"></stop>
    </radialGradient>
  </defs>

  
  <ellipse cx="14" cy="21" rx="14" ry="4" fill="url(#horGlowA)"></ellipse>

  
  <rect x="8" y="6" width="12" height="2.6" rx="1.3" fill="url(#horFarA)"></rect>
  <rect x="8.5" y="6.3" width="11" height="0.9" rx="0.45" fill="url(#horFarGlossA)" opacity="0.6"></rect>

  
  <rect x="6" y="12" width="16" height="3.2" rx="1.6" fill="url(#horMidA)"></rect>
  <rect x="6.6" y="12.35" width="14.8" height="1.1" rx="0.55" fill="url(#horMidGlossA)" opacity="0.75"></rect>

  
  <rect x="3" y="19" width="22" height="4.2" rx="2.1" fill="url(#horNowA)"></rect>
  <rect x="3.7" y="19.5" width="20.6" height="1.5" rx="0.75" fill="url(#horNowGlossA)" opacity="0.95"></rect>
  <rect x="3" y="19" width="22" height="4.2" rx="2.1" fill="none" stroke="rgba(255,255,255,0.22)" stroke-width="0.4"></rect>
</svg>